<?xml version="1.0" standalone="no"?>
<!DOCTYPE svg PUBLIC "-//W3C//DTD SVG 20010904//EN"
 "http://www.w3.org/TR/2001/REC-SVG-20010904/DTD/svg10.dtd">
<svg version="1.0" xmlns="http://www.w3.org/2000/svg"
 width="880.000000pt" height="1280.000000pt" viewBox="0 0 880.000000 1280.000000"
 preserveAspectRatio="xMidYMid meet">
<metadata>
Created by potrace 1.15, written by Peter Selinger 2001-2017
</metadata>
<g transform="translate(0.000000,1280.000000) scale(0.100000,-0.100000)"
fill="#000000" stroke="none">
<path d="M3910 12369 c-52 -4 -164 -15 -249 -25 l-153 -17 5 -39 c3 -22 8 -42
10 -45 3 -3 37 0 76 6 38 6 86 11 105 11 41 0 34 40 77 -385 16 -165 37 -361
44 -435 8 -74 15 -145 15 -157 0 -21 3 -22 53 -16 28 3 53 7 55 8 1 1 -16 225
-39 499 -23 273 -40 499 -38 501 3 2 50 7 107 11 l102 7 0 43 0 44 -37 -1
c-21 -1 -81 -5 -133 -10z"/>
<path d="M4599 12348 c0 -18 -8 -263 -17 -545 l-17 -512 95 -6 c52 -3 140 -10
195 -14 55 -5 101 -8 101 -7 1 0 4 20 7 43 l5 41 -57 6 c-31 3 -96 9 -145 12
l-89 7 7 151 c4 83 9 178 13 210 l6 59 137 -7 138 -7 4 38 c3 21 4 40 2 42 -5
6 -147 20 -211 21 -34 0 -64 3 -66 8 -3 4 0 96 6 206 l11 199 95 -7 c53 -3
129 -9 169 -13 l73 -6 -3 44 -3 44 -140 12 c-77 6 -179 12 -227 12 l-88 1 -1
-32z"/>
<path d="M5630 12260 c0 -6 -45 -244 -100 -530 -55 -285 -100 -523 -100 -529
0 -11 81 -31 92 -22 9 8 147 659 149 699 4 84 22 -94 51 -490 7 -104 15 -158
23 -158 6 0 51 64 100 143 108 174 254 398 267 412 5 6 5 -1 -1 -15 -11 -24
-201 -677 -201 -690 0 -6 91 -33 95 -28 2 2 74 233 160 513 87 281 160 515
162 521 2 6 -15 16 -40 22 -25 7 -51 14 -59 17 -16 6 -104 -123 -306 -448
l-110 -178 -6 53 c-3 29 -10 134 -16 233 -7 99 -18 242 -26 319 -8 76 -14 140
-14 141 0 2 -19 6 -42 10 -24 3 -51 9 -60 11 -10 3 -18 0 -18 -6z"/>
<path d="M2745 12174 c-93 -25 -190 -55 -215 -67 -67 -33 -70 -53 -30 -188 19
-62 43 -125 55 -142 13 -19 69 -56 160 -106 77 -42 183 -102 237 -134 l96 -57
25 -107 c14 -60 27 -117 29 -128 3 -17 -12 -23 -117 -52 -66 -18 -123 -33
-126 -33 -3 0 -20 53 -39 118 -18 64 -37 121 -41 126 -10 11 -109 -15 -108
-28 0 -6 21 -74 47 -151 63 -188 47 -181 277 -121 143 38 185 53 203 72 12 14
22 33 22 42 0 36 -61 288 -75 309 -17 25 -140 103 -335 211 -74 42 -138 78
-142 82 -14 11 -70 212 -61 220 8 8 192 61 258 74 l30 7 28 -120 28 -119 55
13 c30 7 57 15 60 17 2 3 -9 65 -26 139 -16 73 -30 135 -30 137 0 6 -69 32
-82 31 -7 0 -89 -21 -183 -45z"/>
<path d="M1890 11885 l-55 -24 3 -78 c3 -88 29 -410 38 -463 5 -32 -9 -20
-199 169 -113 112 -209 202 -214 200 -54 -24 -114 -62 -107 -68 5 -5 52 -45
104 -91 52 -45 166 -148 253 -227 l158 -145 66 -136 c36 -76 78 -165 94 -200
l29 -62 50 25 50 25 -24 53 c-165 361 -156 335 -161 453 -3 60 -8 143 -10 184
-2 41 -4 150 -5 243 0 92 -3 167 -7 167 -5 -1 -33 -12 -63 -25z"/>
<path d="M7048 11763 c-256 -341 -585 -807 -604 -857 -3 -9 10 -19 36 -30 22
-9 44 -16 48 -16 5 0 35 41 68 91 32 51 62 96 65 101 9 13 223 -87 227 -106 2
-9 -10 -65 -28 -123 -17 -58 -29 -107 -28 -108 10 -8 90 -46 93 -43 17 17 241
887 270 1048 6 35 5 36 -50 63 -30 15 -57 27 -58 27 -2 0 -19 -21 -39 -47z
m-53 -442 c-36 -145 -68 -267 -70 -272 -4 -6 -190 72 -203 86 -4 4 112 169
289 411 24 33 45 56 47 50 1 -6 -27 -130 -63 -275z"/>
<path d="M703 11238 c-226 -155 -283 -210 -268 -257 8 -27 146 -201 175 -222
18 -13 75 -24 195 -39 94 -12 217 -29 275 -38 l105 -17 74 -109 74 -110 -24
-15 c-13 -9 -63 -45 -112 -79 -49 -35 -90 -62 -91 -60 -4 4 -149 202 -153 207
-4 6 -85 -52 -90 -65 -5 -15 161 -230 189 -245 11 -6 31 -8 45 -4 21 5 209
133 311 211 52 40 45 72 -43 211 -41 65 -85 126 -98 136 -23 18 -253 61 -472
88 l-100 12 -67 93 -67 93 82 59 c120 86 178 124 181 120 2 -1 31 -46 66 -98
35 -52 64 -96 65 -98 1 -1 26 12 54 29 31 19 50 38 47 45 -11 28 -129 210
-144 222 -9 6 -32 12 -52 12 -29 0 -61 -16 -157 -82z"/>
<path d="M7826 11222 c-104 -161 -101 -140 -52 -362 19 -85 42 -202 52 -260
l17 -106 -71 -96 c-40 -53 -76 -99 -80 -102 -6 -3 -95 55 -207 137 -18 13 -17
18 48 115 37 55 69 106 72 114 3 8 -13 25 -41 42 -55 35 -40 47 -145 -120 -78
-125 -81 -146 -25 -189 97 -75 273 -198 295 -207 43 -16 68 0 133 83 115 148
128 169 128 208 0 33 -45 285 -84 469 l-16 73 62 92 c33 51 62 94 64 96 3 3
86 -53 207 -139 26 -19 47 -38 47 -43 0 -5 -30 -50 -66 -99 -36 -49 -63 -95
-61 -102 3 -6 23 -25 46 -40 49 -34 44 -37 140 88 72 94 83 125 61 166 -12 23
-87 81 -250 194 -109 76 -129 86 -167 86 l-43 0 -64 -98z"/>
<path d="M4135 11113 c-333 -12 -786 -93 -1117 -199 -194 -62 -419 -154 -411
-168 10 -15 168 -243 287 -414 88 -126 548 -788 661 -952 32 -47 100 -143 150
-215 97 -138 174 -250 246 -355 25 -36 134 -193 244 -350 109 -157 247 -355
306 -440 59 -85 121 -175 139 -200 47 -68 287 -413 445 -641 77 -111 181 -259
230 -329 348 -495 838 -1267 1137 -1795 139 -244 181 -321 364 -670 23 -44 47
-81 53 -83 15 -5 14 9 -9 259 -89 972 -109 1737 -110 4200 l0 1617 -92 60
c-434 280 -951 489 -1458 590 -360 72 -695 99 -1065 85z"/>
<path d="M1186 9760 c-563 -587 -961 -1368 -1110 -2182 -174 -945 -37 -1901
394 -2753 200 -395 421 -707 744 -1050 l75 -80 1 3083 c0 1695 -2 3082 -4
3082 -2 0 -47 -45 -100 -100z"/>
<path d="M2265 9600 c-3 -5 1 -126 9 -267 64 -1090 74 -1653 78 -4337 2 -1733
1 -2050 -11 -2054 -16 -5 181 -102 344 -169 362 -149 772 -254 1175 -300 195
-22 711 -25 900 -5 413 45 819 145 1195 297 210 85 566 265 614 310 14 14 -20
65 -486 743 -67 97 -151 220 -187 272 -35 52 -110 160 -165 240 -55 80 -126
183 -158 230 -32 47 -139 203 -238 347 -99 144 -229 334 -290 423 -60 88 -139
203 -175 254 -92 133 -199 288 -368 536 -81 118 -177 258 -214 312 -37 53
-100 145 -141 205 -40 59 -148 216 -239 348 -666 969 -1181 1800 -1554 2512
-55 105 -74 127 -89 103z"/>
<path d="M7810 6791 c0 -2381 1 -2572 16 -2560 24 20 212 308 276 424 494 888
664 1886 492 2879 -105 607 -343 1187 -699 1705 l-85 125 0 -2573z"/>
<path d="M1387 3068 c-8 -13 -34 -59 -57 -103 -24 -44 -77 -141 -118 -215
-242 -441 -322 -589 -322 -599 0 -6 27 -24 60 -41 l60 -30 19 37 c11 21 50 97
88 168 37 72 109 208 158 303 50 94 93 172 96 172 3 0 9 -116 12 -257 6 -246
23 -552 33 -601 3 -14 20 -30 49 -44 25 -12 46 -20 48 -17 2 2 56 126 120 274
63 149 156 365 206 480 49 116 91 216 93 223 2 8 -19 23 -50 38 l-53 23 -42
-92 c-24 -51 -94 -206 -157 -344 -63 -139 -118 -253 -121 -253 -10 0 -19 283
-19 579 l0 276 -40 23 c-21 12 -41 22 -44 22 -3 0 -12 -10 -19 -22z"/>
<path d="M7102 2945 c-41 -19 -52 -29 -48 -42 22 -75 129 -693 161 -938 10
-71 21 -133 25 -138 5 -6 110 34 128 48 2 2 -6 54 -17 116 -12 62 -21 117 -21
120 0 4 66 39 146 78 l145 70 32 -36 c94 -109 121 -138 128 -141 12 -5 131 58
127 68 -2 4 -82 93 -179 197 -197 210 -297 322 -449 498 -56 66 -108 121 -114
123 -6 1 -35 -9 -64 -23z m317 -443 c75 -90 137 -167 139 -171 4 -11 -240
-124 -248 -114 -4 4 -17 60 -29 123 -12 63 -38 186 -57 272 -19 86 -34 160
-34 163 0 3 21 -20 47 -52 25 -32 107 -131 182 -221z"/>
<path d="M5584 2439 l-42 -10 -6 -157 c-9 -224 -25 -551 -33 -660 l-6 -94 -55
144 c-30 79 -101 269 -158 423 l-102 280 -58 -3 c-32 -1 -60 -4 -62 -7 -7 -7
123 -361 261 -709 l130 -328 51 6 c101 14 91 -2 105 174 16 204 38 584 46 790
8 182 14 170 -71 151z"/>
<path d="M3216 2398 c-21 -20 -30 -54 -76 -293 -28 -148 -69 -358 -90 -465
-22 -108 -37 -206 -33 -218 13 -51 49 -60 465 -122 147 -22 202 -9 217 49 5
20 29 242 52 494 31 331 40 463 33 475 -18 29 -55 40 -184 57 -69 9 -160 22
-204 30 -111 21 -150 19 -180 -7z m264 -93 c63 -9 130 -18 148 -21 20 -3 32
-11 32 -21 0 -29 -102 -878 -105 -882 -6 -6 -379 49 -387 57 -5 6 135 842 148
881 2 8 13 11 27 8 12 -3 74 -13 137 -22z"/>
</g>
</svg>
